<mxfile host="app.diagrams.net" modified="2023-11-28T02:27:18.752Z" agent="Mozilla/5.0 (Macintosh; Intel Mac OS X 10_15_6) AppleWebKit/537.36 (KHTML, like Gecko) Chrome/78.0.3904.108 Safari/537.36" etag="HDQ4ADpw73EfXxW1-Hny" version="21.7.2" type="github">
  <diagram name="第 1 页" id="jROqOUoiwMC_L9ADMDEJ">
    <mxGraphModel dx="875" dy="408" grid="1" gridSize="10" guides="1" tooltips="1" connect="1" arrows="1" fold="1" page="1" pageScale="1" pageWidth="827" pageHeight="1169" math="0" shadow="0">
      <root>
        <mxCell id="0" />
        <mxCell id="1" parent="0" />
        <mxCell id="AEkP96mwi0VHa518bVyS-5" value="" style="edgeStyle=orthogonalEdgeStyle;rounded=0;orthogonalLoop=1;jettySize=auto;html=1;" edge="1" parent="1" source="AEkP96mwi0VHa518bVyS-1" target="AEkP96mwi0VHa518bVyS-4">
          <mxGeometry relative="1" as="geometry" />
        </mxCell>
        <mxCell id="AEkP96mwi0VHa518bVyS-1" value="Start" style="ellipse;whiteSpace=wrap;html=1;aspect=fixed;" vertex="1" parent="1">
          <mxGeometry x="210" y="380" width="80" height="80" as="geometry" />
        </mxCell>
        <mxCell id="AEkP96mwi0VHa518bVyS-7" value="" style="edgeStyle=orthogonalEdgeStyle;rounded=0;orthogonalLoop=1;jettySize=auto;html=1;" edge="1" parent="1" source="AEkP96mwi0VHa518bVyS-4" target="AEkP96mwi0VHa518bVyS-6">
          <mxGeometry relative="1" as="geometry" />
        </mxCell>
        <mxCell id="AEkP96mwi0VHa518bVyS-4" value="消息中心后台-短信-指定号码查询" style="rounded=1;whiteSpace=wrap;html=1;" vertex="1" parent="1">
          <mxGeometry x="190" y="550" width="120" height="60" as="geometry" />
        </mxCell>
        <mxCell id="AEkP96mwi0VHa518bVyS-12" value="" style="edgeStyle=orthogonalEdgeStyle;rounded=0;orthogonalLoop=1;jettySize=auto;html=1;" edge="1" parent="1" source="AEkP96mwi0VHa518bVyS-6" target="AEkP96mwi0VHa518bVyS-11">
          <mxGeometry relative="1" as="geometry" />
        </mxCell>
        <mxCell id="AEkP96mwi0VHa518bVyS-13" value="未查询到" style="edgeLabel;html=1;align=center;verticalAlign=middle;resizable=0;points=[];" vertex="1" connectable="0" parent="AEkP96mwi0VHa518bVyS-12">
          <mxGeometry x="-0.4619" y="-1" relative="1" as="geometry">
            <mxPoint as="offset" />
          </mxGeometry>
        </mxCell>
        <mxCell id="AEkP96mwi0VHa518bVyS-18" value="" style="edgeStyle=orthogonalEdgeStyle;rounded=0;orthogonalLoop=1;jettySize=auto;html=1;" edge="1" parent="1" source="AEkP96mwi0VHa518bVyS-6" target="AEkP96mwi0VHa518bVyS-17">
          <mxGeometry relative="1" as="geometry" />
        </mxCell>
        <mxCell id="AEkP96mwi0VHa518bVyS-19" value="查询到" style="edgeLabel;html=1;align=center;verticalAlign=middle;resizable=0;points=[];" vertex="1" connectable="0" parent="AEkP96mwi0VHa518bVyS-18">
          <mxGeometry x="-0.108" y="1" relative="1" as="geometry">
            <mxPoint as="offset" />
          </mxGeometry>
        </mxCell>
        <mxCell id="AEkP96mwi0VHa518bVyS-6" value="根据反馈手机号查询" style="rhombus;whiteSpace=wrap;html=1;rounded=1;" vertex="1" parent="1">
          <mxGeometry x="210" y="680" width="80" height="80" as="geometry" />
        </mxCell>
        <mxCell id="AEkP96mwi0VHa518bVyS-11" value="开发介入&lt;br&gt;END" style="shape=parallelogram;perimeter=parallelogramPerimeter;whiteSpace=wrap;html=1;fixedSize=1;rounded=1;" vertex="1" parent="1">
          <mxGeometry x="30" y="790" width="120" height="60" as="geometry" />
        </mxCell>
        <mxCell id="AEkP96mwi0VHa518bVyS-21" value="" style="edgeStyle=orthogonalEdgeStyle;rounded=0;orthogonalLoop=1;jettySize=auto;html=1;" edge="1" parent="1" source="AEkP96mwi0VHa518bVyS-17" target="AEkP96mwi0VHa518bVyS-20">
          <mxGeometry relative="1" as="geometry" />
        </mxCell>
        <mxCell id="AEkP96mwi0VHa518bVyS-22" value="发送成功" style="edgeLabel;html=1;align=center;verticalAlign=middle;resizable=0;points=[];" vertex="1" connectable="0" parent="AEkP96mwi0VHa518bVyS-21">
          <mxGeometry x="-0.0922" relative="1" as="geometry">
            <mxPoint as="offset" />
          </mxGeometry>
        </mxCell>
        <mxCell id="AEkP96mwi0VHa518bVyS-17" value="判断发送类型" style="rhombus;whiteSpace=wrap;html=1;rounded=1;" vertex="1" parent="1">
          <mxGeometry x="370" y="780" width="80" height="80" as="geometry" />
        </mxCell>
        <mxCell id="AEkP96mwi0VHa518bVyS-20" value="让用户检查终端，是否信号问题；是否在黑名单" style="whiteSpace=wrap;html=1;rounded=1;" vertex="1" parent="1">
          <mxGeometry x="200" y="870" width="120" height="60" as="geometry" />
        </mxCell>
      </root>
    </mxGraphModel>
  </diagram>
</mxfile>
